<svg width="122" height="26" viewBox="0 0 122 26" fill="none" xmlns="http://www.w3.org/2000/svg">
<path d="M9.19467 2.94895C9.46221 2.12555 10.6271 2.12555 10.8946 2.94895L12.6532 8.36114C12.7728 8.72938 13.116 8.97869 13.5032 8.97869H19.1939C20.0597 8.97869 20.4196 10.0866 19.7192 10.5955L15.1153 13.9404C14.8021 14.168 14.671 14.5714 14.7906 14.9396L16.5492 20.3518C16.8167 21.1752 15.8743 21.8599 15.1739 21.351L10.57 18.0061C10.2567 17.7785 9.83258 17.7785 9.51934 18.0061L4.91545 21.351C4.21502 21.8599 3.27261 21.1752 3.54015 20.3518L5.29867 14.9396C5.41832 14.5714 5.28725 14.168 4.97401 13.9404L0.370122 10.5955C-0.330307 10.0866 0.0296666 8.97869 0.895444 8.97869H6.58616C6.97334 8.97869 7.3165 8.72938 7.43614 8.36114L9.19467 2.94895Z" fill="#FFA722"/>
<path d="M58.7934 3.05498C59.0551 2.21963 60.2373 2.21963 60.4991 3.05499L62.1587 8.35219C62.2755 8.72498 62.6209 8.97871 63.0116 8.97871H68.4497C69.3076 8.97871 69.6727 10.07 68.9875 10.5862L64.5327 13.9427C64.2308 14.1702 64.1047 14.563 64.2177 14.9237L65.906 20.3121C66.1657 21.1412 65.2093 21.8159 64.5153 21.2931L60.184 18.0297C59.8656 17.7898 59.4268 17.7898 59.1084 18.0297L54.7771 21.2931C54.0831 21.8159 53.1267 21.1412 53.3864 20.3121L55.0747 14.9237C55.1877 14.563 55.0616 14.1702 54.7597 13.9427L50.3049 10.5862C49.6197 10.07 49.9848 8.97871 50.8427 8.97871H56.2808C56.6715 8.97871 57.0169 8.72498 57.1337 8.35219L58.7934 3.05498Z" fill="#FFA722"/>
<path d="M110.906 8.67027C111.16 9.45039 111.887 9.97876 112.707 9.97886H118.071L113.731 13.1312C113.068 13.6134 112.791 14.4682 113.044 15.2484L114.7 20.349L110.362 17.1966L110.234 17.1126C109.629 16.7435 108.868 16.7434 108.263 17.1126L108.136 17.1966L103.796 20.35L105.454 15.2484C105.707 14.4682 105.429 13.6134 104.766 13.1312L100.427 9.97886H105.79C106.61 9.97886 107.337 9.45039 107.591 8.67027L109.248 3.5687L110.906 8.67027Z" stroke="#FFA722" stroke-width="2"/>
<path d="M34.2191 2.94895C34.4866 2.12555 35.6515 2.12555 35.9191 2.94895L37.6776 8.36114C37.7972 8.72938 38.1404 8.97869 38.5276 8.97869H44.2183C45.0841 8.97869 45.444 10.0866 44.7436 10.5955L40.1397 13.9404C39.8265 14.168 39.6954 14.5714 39.8151 14.9396L41.5736 20.3518C41.8411 21.1752 40.8987 21.8599 40.1983 21.351L35.5944 18.0061C35.2812 17.7785 34.857 17.7785 34.5438 18.0061L29.9399 21.351C29.2394 21.8599 28.297 21.1752 28.5646 20.3518L30.3231 14.9396C30.4427 14.5714 30.3117 14.168 29.9984 13.9404L25.3945 10.5955C24.6941 10.0866 25.0541 8.97869 25.9199 8.97869H31.6106C31.9978 8.97869 32.3409 8.72938 32.4606 8.36114L34.2191 2.94895Z" fill="#FFA722"/>
<path d="M83.3744 2.94895C83.6419 2.12555 84.8068 2.12555 85.0743 2.94895L86.8329 8.36114C86.9525 8.72938 87.2957 8.97869 87.6828 8.97869H93.3736C94.2393 8.97869 94.5993 10.0866 93.8989 10.5955L89.295 13.9404C88.9818 14.168 88.8507 14.5714 88.9703 14.9396L90.7289 20.3518C90.9964 21.1752 90.054 21.8599 89.3535 21.351L84.7497 18.0061C84.4364 17.7785 84.0123 17.7785 83.699 18.0061L79.0951 21.351C78.3947 21.8599 77.4523 21.1752 77.7198 20.3518L79.4784 14.9396C79.598 14.5714 79.4669 14.168 79.1537 13.9404L74.5498 10.5955C73.8494 10.0866 74.2094 8.97869 75.0751 8.97869H80.7658C81.153 8.97869 81.4962 8.72938 81.6158 8.36114L83.3744 2.94895Z" fill="#FFA722"/>
<mask id="mask0_1_3677" style="mask-type:alpha" maskUnits="userSpaceOnUse" x="99" y="2" width="21" height="20">
<path d="M108.289 2.92705C108.588 2.00574 109.892 2.00574 110.191 2.92705L111.826 7.96085C111.96 8.37288 112.344 8.65184 112.778 8.65184H118.07C119.039 8.65184 119.442 9.89145 118.658 10.4609L114.376 13.5719C114.026 13.8266 113.879 14.2779 114.013 14.6899L115.648 19.7238C115.948 20.6451 114.893 21.4112 114.11 20.8418L109.828 17.7307C109.477 17.4761 109.003 17.4761 108.652 17.7307L104.37 20.8418C103.586 21.4112 102.532 20.6451 102.831 19.7238L104.467 14.69C104.601 14.2779 104.454 13.8266 104.103 13.5719L99.8215 10.4609C99.0378 9.89145 99.4405 8.65184 100.409 8.65184H105.702C106.135 8.65184 106.519 8.37288 106.653 7.96085L108.289 2.92705Z" fill="#FFA722"/>
</mask>
<g mask="url(#mask0_1_3677)">
<rect x="99.1738" y="0.49115" width="9.82044" height="22.587" rx="1" fill="#FFA722"/>
</g>
</svg>
